<svg id="Layer_1" data-name="Layer 1" xmlns="http://www.w3.org/2000/svg" viewBox="0 0 185.19 84.12"><defs><style>.cls-1,.cls-2,.cls-3,.cls-4{fill:#1f2e38;}.cls-1{opacity:0.25;}.cls-1,.cls-2,.cls-3{isolation:isolate;}.cls-2{opacity:0.5;}.cls-3{opacity:0.75;}</style></defs><title>SecretCodeLogo</title><g id="Group_3475" data-name="Group 3475"><g id="Group_3472" data-name="Group 3472"><rect id="Rectangle_17385" data-name="Rectangle 17385" class="cls-1" x="37.17" y="38.79" width="1.4" height="1.4"/><rect id="Rectangle_17386" data-name="Rectangle 17386" class="cls-1" x="40.86" y="38.79" width="1.4" height="1.4"/><rect id="Rectangle_17387" data-name="Rectangle 17387" class="cls-2" x="42.7" y="38.79" width="1.4" height="1.4"/><rect id="Rectangle_17388" data-name="Rectangle 17388" class="cls-3" x="44.54" y="38.79" width="1.4" height="1.4"/><rect id="Rectangle_17389" data-name="Rectangle 17389" class="cls-2" x="37.17" y="37.02" width="1.4" height="1.4"/><rect id="Rectangle_17390" data-name="Rectangle 17390" class="cls-1" x="39.01" y="37.02" width="1.4" height="1.4"/><rect id="Rectangle_17391" data-name="Rectangle 17391" class="cls-2" x="40.86" y="37.02" width="1.4" height="1.4"/><rect id="Rectangle_17392" data-name="Rectangle 17392" class="cls-3" x="42.7" y="37.02" width="1.4" height="1.4"/><rect id="Rectangle_17393" data-name="Rectangle 17393" class="cls-3" x="37.17" y="35.25" width="1.4" height="1.4"/><rect id="Rectangle_17394" data-name="Rectangle 17394" class="cls-1" x="40.86" y="35.25" width="1.4" height="1.4"/><rect id="Rectangle_17395" data-name="Rectangle 17395" class="cls-4" x="42.7" y="35.25" width="1.4" height="1.4"/><rect id="Rectangle_17396" data-name="Rectangle 17396" class="cls-3" x="44.54" y="35.25" width="1.4" height="1.4"/><rect id="Rectangle_17397" data-name="Rectangle 17397" class="cls-2" x="37.17" y="33.48" width="1.4" height="1.4"/><rect id="Rectangle_17398" data-name="Rectangle 17398" class="cls-4" x="39.01" y="33.48" width="1.4" height="1.4"/><rect id="Rectangle_17399" data-name="Rectangle 17399" class="cls-3" x="40.86" y="33.48" width="1.4" height="1.4"/><rect id="Rectangle_17400" data-name="Rectangle 17400" class="cls-1" x="42.7" y="33.48" width="1.4" height="1.4"/><rect id="Rectangle_17401" data-name="Rectangle 17401" class="cls-2" x="44.54" y="33.48" width="1.4" height="1.4"/><rect id="Rectangle_17402" data-name="Rectangle 17402" class="cls-3" x="37.17" y="31.71" width="1.4" height="1.4"/><rect id="Rectangle_17403" data-name="Rectangle 17403" class="cls-1" x="39.01" y="31.71" width="1.4" height="1.4"/><rect id="Rectangle_17404" data-name="Rectangle 17404" class="cls-4" x="40.86" y="31.71" width="1.4" height="1.4"/><rect id="Rectangle_17405" data-name="Rectangle 17405" class="cls-2" x="42.7" y="31.71" width="1.4" height="1.4"/><rect id="Rectangle_17406" data-name="Rectangle 17406" class="cls-3" x="44.54" y="31.71" width="1.4" height="1.4"/><rect id="Rectangle_17407" data-name="Rectangle 17407" class="cls-2" x="37.17" y="29.95" width="1.4" height="1.4"/><rect id="Rectangle_17408" data-name="Rectangle 17408" class="cls-1" x="40.86" y="29.95" width="1.4" height="1.4"/><rect id="Rectangle_17409" data-name="Rectangle 17409" class="cls-2" x="42.7" y="29.95" width="1.4" height="1.4"/><rect id="Rectangle_17410" data-name="Rectangle 17410" class="cls-3" x="37.17" y="28.18" width="1.4" height="1.4"/><rect id="Rectangle_17411" data-name="Rectangle 17411" class="cls-4" x="39.01" y="28.18" width="1.4" height="1.4"/><rect id="Rectangle_17412" data-name="Rectangle 17412" class="cls-2" x="40.86" y="28.18" width="1.4" height="1.4"/><rect id="Rectangle_17413" data-name="Rectangle 17413" class="cls-2" x="42.7" y="28.18" width="1.4" height="1.4"/><rect id="Rectangle_17414" data-name="Rectangle 17414" class="cls-3" x="44.54" y="28.18" width="1.4" height="1.4"/><rect id="Rectangle_17415" data-name="Rectangle 17415" class="cls-4" x="37.17" y="26.41" width="1.4" height="1.4"/><rect id="Rectangle_17416" data-name="Rectangle 17416" class="cls-4" x="39.01" y="26.41" width="1.4" height="1.4"/><rect id="Rectangle_17417" data-name="Rectangle 17417" class="cls-4" x="40.86" y="26.41" width="1.4" height="1.4"/><rect id="Rectangle_17418" data-name="Rectangle 17418" class="cls-4" x="42.7" y="26.41" width="1.4" height="1.4"/><rect id="Rectangle_17419" data-name="Rectangle 17419" class="cls-4" x="44.54" y="26.41" width="1.4" height="1.4"/><rect id="Rectangle_17420" data-name="Rectangle 17420" class="cls-4" x="37.17" y="24.64" width="1.4" height="1.4"/><rect id="Rectangle_17421" data-name="Rectangle 17421" class="cls-4" x="39.01" y="24.64" width="1.4" height="1.4"/><rect id="Rectangle_17422" data-name="Rectangle 17422" class="cls-4" x="42.7" y="24.64" width="1.4" height="1.4"/><rect id="Rectangle_17423" data-name="Rectangle 17423" class="cls-4" x="44.54" y="24.64" width="1.4" height="1.4"/><rect id="Rectangle_17424" data-name="Rectangle 17424" class="cls-4" x="37.17" y="22.87" width="1.4" height="1.4"/><rect id="Rectangle_17425" data-name="Rectangle 17425" class="cls-4" x="39.01" y="22.87" width="1.4" height="1.4"/><rect id="Rectangle_17426" data-name="Rectangle 17426" class="cls-4" x="40.86" y="22.87" width="1.4" height="1.4"/><rect id="Rectangle_17427" data-name="Rectangle 17427" class="cls-4" x="42.7" y="22.87" width="1.4" height="1.4"/><rect id="Rectangle_17428" data-name="Rectangle 17428" class="cls-4" x="44.54" y="22.87" width="1.4" height="1.4"/><rect id="Rectangle_17429" data-name="Rectangle 17429" class="cls-4" x="37.17" y="21.1" width="1.4" height="1.4"/><rect id="Rectangle_17430" data-name="Rectangle 17430" class="cls-4" x="39.01" y="21.1" width="1.4" height="1.4"/><rect id="Rectangle_17431" data-name="Rectangle 17431" class="cls-4" x="40.86" y="21.1" width="1.4" height="1.4"/><rect id="Rectangle_17432" data-name="Rectangle 17432" class="cls-4" x="44.54" y="21.1" width="1.4" height="1.4"/><rect id="Rectangle_17433" data-name="Rectangle 17433" class="cls-1" x="39.01" y="38.79" width="1.4" height="1.4"/><rect id="Rectangle_17434" data-name="Rectangle 17434" class="cls-4" x="44.54" y="37.02" width="1.4" height="1.4"/><rect id="Rectangle_17435" data-name="Rectangle 17435" class="cls-3" x="39.01" y="35.25" width="1.4" height="1.4"/><rect id="Rectangle_17436" data-name="Rectangle 17436" class="cls-3" x="39.01" y="29.95" width="1.4" height="1.4"/><rect id="Rectangle_17437" data-name="Rectangle 17437" class="cls-4" x="44.54" y="29.95" width="1.4" height="1.4"/><rect id="Rectangle_17438" data-name="Rectangle 17438" class="cls-4" x="40.86" y="24.64" width="1.4" height="1.4"/><rect id="Rectangle_17439" data-name="Rectangle 17439" class="cls-4" x="42.7" y="21.1" width="1.4" height="1.4"/></g><g id="Group_3473" data-name="Group 3473"><path id="Path_8445" data-name="Path 8445" class="cls-4" d="M27.71,62.48a3.77,3.77,0,0,1-2.53-1.33,3.74,3.74,0,0,1-2.52,1.33s-.25,3.57,2.47,4.35h.05C28,66.1,27.71,62.48,27.71,62.48Z"/><path id="Path_8446" data-name="Path 8446" class="cls-4" d="M50.31,40.75c-12.81,0-23.08-10.92-25.13-13.24A46.68,46.68,0,0,1,13.51,37V20.62c0-6.17,5.67-11.22,11.84-11.22h0c6.17,0,11.85,5,11.85,11.22v7.25L46,22.54v-1.9a20.64,20.64,0,0,0-41.28,0V40.27a23,23,0,0,1-4.68.48s-.12,1.71,0,4.45c1.07,0,2.35.08,3.24.08,1.5,0,3-.07,4.07-.13,0,0,1.66-.12,1.86-.14,8.21-.94,14.62-7.76,16-9.29,1.46,1.65,8.75,9.4,17.84,9.4,0,0,1.78,25.52-17.84,30.79l-.36-.1C13.3,72.52,9.31,62.17,8,54.38H1C3,65.27,8.73,79.43,24.68,84l.5.15C52.82,76.7,50.31,40.75,50.31,40.75Z"/></g><g id="Group_3474" data-name="Group 3474"><rect id="Rectangle_17440" data-name="Rectangle 17440" class="cls-2" x="3.35" y="46.61" width="1.27" height="1.27"/><rect id="Rectangle_17441" data-name="Rectangle 17441" class="cls-4" x="1.68" y="53.05" width="1.27" height="1.27"/><rect id="Rectangle_17442" data-name="Rectangle 17442" class="cls-4" x="1.68" y="49.83" width="1.27" height="1.27"/><rect id="Rectangle_17443" data-name="Rectangle 17443" class="cls-4" x="3.35" y="45" width="1.27" height="1.27"/><rect id="Rectangle_17444" data-name="Rectangle 17444" class="cls-3" x="1.68" y="51.44" width="1.27" height="1.27"/><rect id="Rectangle_17445" data-name="Rectangle 17445" class="cls-2" x="3.35" y="51.44" width="1.27" height="1.27"/><rect id="Rectangle_17446" data-name="Rectangle 17446" class="cls-4" x="5.03" y="46.61" width="1.27" height="1.27"/><rect id="Rectangle_17447" data-name="Rectangle 17447" class="cls-2" x="5.03" y="48.22" width="1.27" height="1.27"/><rect id="Rectangle_17448" data-name="Rectangle 17448" class="cls-4" x="5.03" y="49.83" width="1.27" height="1.27"/><rect id="Rectangle_17449" data-name="Rectangle 17449" class="cls-1" x="5.03" y="51.44" width="1.27" height="1.27"/><rect id="Rectangle_17450" data-name="Rectangle 17450" class="cls-4" x="5.03" y="53.05" width="1.27" height="1.27"/><rect id="Rectangle_17451" data-name="Rectangle 17451" class="cls-1" x="3.35" y="48.22" width="1.27" height="1.27"/><rect id="Rectangle_17452" data-name="Rectangle 17452" class="cls-3" x="3.35" y="49.83" width="1.27" height="1.27"/><rect id="Rectangle_17453" data-name="Rectangle 17453" class="cls-3" x="1.68" y="48.22" width="1.27" height="1.27"/><rect id="Rectangle_17454" data-name="Rectangle 17454" class="cls-3" x="3.35" y="53.05" width="1.27" height="1.27"/><path id="Path_8447" data-name="Path 8447" class="cls-2" d="M.19,47.88H1.27V46.61H.1Z"/><path id="Path_8448" data-name="Path 8448" class="cls-4" d="M.09,46.27H1.27V45H0c0,.42,0,.84,0,1.27Z"/><path id="Path_8449" data-name="Path 8449" class="cls-4" d="M.33,49.49h.94V48.22H.21Z"/><path id="Path_8450" data-name="Path 8450" class="cls-4" d="M1.27,54.32V53.05H.81c.07.43.14.85.22,1.27Z"/><rect id="Rectangle_17455" data-name="Rectangle 17455" class="cls-3" x="1.68" y="45" width="1.27" height="1.27"/><path id="Path_8451" data-name="Path 8451" class="cls-1" d="M1.27,51.1V49.83H.37c0,.42.1.85.15,1.27Z"/><rect id="Rectangle_17456" data-name="Rectangle 17456" class="cls-3" x="1.68" y="46.61" width="1.27" height="1.27"/><path id="Path_8452" data-name="Path 8452" class="cls-4" d="M.75,52.71h.52V51.44H.57c.05.42.12.85.18,1.27Z"/><path id="Path_8454" data-name="Path 8454" class="cls-3" d="M7.34,46.61H6.71v1.27h.65C7.35,47.45,7.34,47,7.34,46.61Z"/><path id="Path_8456" data-name="Path 8456" class="cls-3" d="M7.44,49.83H6.71V51.1h.83C7.5,50.67,7.47,50.25,7.44,49.83Z"/><path id="Path_8458" data-name="Path 8458" class="cls-4" d="M7.57,51.44H6.71v1.27h1C7.66,52.28,7.61,51.86,7.57,51.44Z"/><path id="Path_8459" data-name="Path 8459" class="cls-4" d="M7.37,48.22H6.71v1.27h.71C7.4,49.06,7.38,48.64,7.37,48.22Z"/><path id="Path_8461" data-name="Path 8461" class="cls-2" d="M7.76,53.05h-1v1.27H7.94c0-.22-.06-.43-.1-.65S7.78,53.26,7.76,53.05Z"/><rect id="Rectangle_17457" data-name="Rectangle 17457" class="cls-1" x="5.03" y="45" width="1.27" height="1.27"/><path id="Path_8462" data-name="Path 8462" class="cls-4" d="M7.34,46.27v0Z"/><path id="Path_8464" data-name="Path 8464" class="cls-4" d="M7.36,45H6.71v1.27h.63C7.34,45.84,7.35,45.42,7.36,45Z"/></g></g><g id="Group_3476" data-name="Group 3476"><path id="Path_8470" data-name="Path 8470" class="cls-4" d="M79.81,29.25q-6.61,0-6.61-6.6V20.57l3.59-1.7H77v3.78q0,3.21,2.83,3.21h5.85q2.84,0,2.83-3.21v-4q0-3.19-2.83-3.2h-5.1q-5.66,0-5.66-5.67V6.42Q74.9.75,80.56.75H84.9q5.67,0,5.67,5.67v1L87,9.12h-.19V6.42c0-1.51-.63-2.27-1.89-2.27H80.56c-1.26,0-1.88.76-1.88,2.27V9.81c0,1.51.62,2.27,1.88,2.27h5.1q6.6,0,6.61,6.6v4q0,6.6-6.61,6.6Z"/><path id="Path_8471" data-name="Path 8471" class="cls-4" d="M106.22,29.25c-3.78,0-5.67-1.88-5.67-5.66V14.16q0-5.67,5.67-5.67h4.34q5.66,0,5.66,5.67v1l-11.83,9.15a1.67,1.67,0,0,0,1.78,1.55h4.39c1.25,0,1.88-.76,1.88-2.27v-1L116,20.9h.19v2.69q0,5.67-5.66,5.67Zm-1.89-8.89,8.09-6.25q-.11-2.22-1.86-2.22h-4.34c-1.26,0-1.89.76-1.89,2.27Z"/><path id="Path_8472" data-name="Path 8472" class="cls-4" d="M126.76,29.25c-3.77,0-5.66-1.88-5.66-5.66V14.16q0-5.67,5.66-5.67h4.34c3.78,0,5.66,1.89,5.66,5.67v1l-3.58,1.7H133v-2.7c0-1.51-.63-2.27-1.89-2.27h-4.34c-1.26,0-1.89.76-1.89,2.27v9.43c0,1.51.63,2.27,1.89,2.27h4.34c1.26,0,1.89-.76,1.89-2.27v-1l3.58-1.7h.19v2.7c0,3.78-1.88,5.67-5.66,5.67Z"/><path id="Path_8473" data-name="Path 8473" class="cls-4" d="M141.64,30V14.16q0-5.67,5.67-5.67H152v.19l-1.51,3.21h-3.21c-1.26,0-1.89.76-1.89,2.26V28.31L141.83,30Z"/><path id="Path_8474" data-name="Path 8474" class="cls-4" d="M161,29.25c-3.77,0-5.66-1.88-5.66-5.66V14.16q0-5.67,5.66-5.67h4.34q5.67,0,5.67,5.67v1L159.2,24.31A1.68,1.68,0,0,0,161,25.86h4.38c1.26,0,1.89-.76,1.89-2.27v-1l3.59-1.69H171v2.69q0,5.67-5.67,5.67Zm-1.88-8.89,8.09-6.25c-.07-1.48-.69-2.22-1.87-2.22H161c-1.25,0-1.88.76-1.88,2.27Z"/><path id="Path_8475" data-name="Path 8475" class="cls-4" d="M176.57,30V11.93h-4.85v-.19l1.53-3.25h3.32V1.7L180.16,0h.18V8.49h4.85v.19l-1.52,3.25h-3.33V28.31L176.76,30Z"/><path id="Path_8476" data-name="Path 8476" class="cls-4" d="M82.1,76.5q-8.89,0-8.9-8.9V47q0-8.89,8.9-8.9H90q8.91,0,8.9,8.9v2.8l-4.83,2.29H93.8V47q0-4.32-3.82-4.32H82.1q-3.81,0-3.81,4.32V67.6q0,4.32,3.81,4.32H90q3.83,0,3.82-4.32V64.8l4.83-2.29h.25V67.6q0,8.9-8.9,8.9Z"/><path id="Path_8477" data-name="Path 8477" class="cls-4" d="M114.8,76.5q-7.64,0-7.63-7.63V56.16q0-7.63,7.63-7.63h5.85q7.62,0,7.62,7.63V68.87q0,7.62-7.62,7.63Zm0-4.58h5.85c1.69,0,2.54-1,2.54-3V56.16c0-2-.85-3-2.54-3H114.8c-1.7,0-2.54,1-2.54,3V68.87c0,2,.84,3,2.54,3Z"/><path id="Path_8478" data-name="Path 8478" class="cls-4" d="M141.88,76.5q-7.63,0-7.63-7.63V56.16q0-7.63,7.63-7.63h5.85a3.52,3.52,0,0,1,2.54.79v-10l4.83-2.29h.25V68.87q0,7.62-7.62,7.63Zm0-4.58h5.85c1.69,0,2.54-1,2.54-3V56.16c0-2-.85-3-2.54-3h-5.85c-1.7,0-2.54,1-2.54,3V68.87c0,2,.84,3,2.54,3Z"/><path id="Path_8479" data-name="Path 8479" class="cls-4" d="M169,76.5q-7.64,0-7.63-7.63V56.16q0-7.63,7.63-7.63h5.85q7.62,0,7.62,7.63V57.5L166.49,69.83A2.26,2.26,0,0,0,169,71.92h5.85c1.69,0,2.54-1,2.54-3V67.52l4.83-2.29h.25v3.64q0,7.63-7.62,7.63Zm-2.54-12,10.9-8.43c-.1-2-.94-3-2.51-3H169c-1.7,0-2.55,1-2.54,3Z"/></g></svg>