<svg id="Layer_1" data-name="Layer 1" xmlns="http://www.w3.org/2000/svg" xmlns:xlink="http://www.w3.org/1999/xlink" viewBox="0 0 227.65 584.23"><defs><style>.cls-1,.cls-10,.cls-16,.cls-19,.cls-2,.cls-24,.cls-49,.cls-6,.cls-61{opacity:0.25;}.cls-1,.cls-10,.cls-12,.cls-13,.cls-15,.cls-16,.cls-17,.cls-18,.cls-19,.cls-2,.cls-21,.cls-22,.cls-23,.cls-24,.cls-25,.cls-26,.cls-28,.cls-29,.cls-3,.cls-30,.cls-4,.cls-49,.cls-5,.cls-51,.cls-52,.cls-58,.cls-6,.cls-60,.cls-61,.cls-7,.cls-8,.cls-9{isolation:isolate;}.cls-1{fill:url(#linear-gradient);}.cls-2{fill:url(#linear-gradient-2);}.cls-13,.cls-17,.cls-21,.cls-23,.cls-25,.cls-28,.cls-29,.cls-3,.cls-5,.cls-58,.cls-7{opacity:0.5;}.cls-3{fill:url(#linear-gradient-3);}.cls-12,.cls-15,.cls-18,.cls-22,.cls-26,.cls-30,.cls-4,.cls-51,.cls-52,.cls-60,.cls-8,.cls-9{opacity:0.75;}.cls-4{fill:url(#linear-gradient-4);}.cls-5{fill:url(#linear-gradient-5);}.cls-6{fill:url(#linear-gradient-6);}.cls-7{fill:url(#linear-gradient-7);}.cls-8{fill:url(#linear-gradient-8);}.cls-9{fill:url(#linear-gradient-9);}.cls-10{fill:url(#linear-gradient-10);}.cls-11{fill:url(#linear-gradient-11);}.cls-12{fill:url(#linear-gradient-12);}.cls-13{fill:url(#linear-gradient-13);}.cls-14{fill:url(#linear-gradient-14);}.cls-15{fill:url(#linear-gradient-15);}.cls-16{fill:url(#linear-gradient-16);}.cls-17{fill:url(#linear-gradient-17);}.cls-18{fill:url(#linear-gradient-18);}.cls-19{fill:url(#linear-gradient-19);}.cls-20{fill:url(#linear-gradient-20);}.cls-21{fill:url(#linear-gradient-21);}.cls-22{fill:url(#linear-gradient-22);}.cls-23{fill:url(#linear-gradient-23);}.cls-24{fill:url(#linear-gradient-24);}.cls-25{fill:url(#linear-gradient-25);}.cls-26{fill:url(#linear-gradient-26);}.cls-27{fill:url(#linear-gradient-27);}.cls-28{fill:url(#linear-gradient-28);}.cls-29{fill:url(#linear-gradient-29);}.cls-30{fill:url(#linear-gradient-30);}.cls-31{fill:url(#linear-gradient-31);}.cls-32{fill:url(#linear-gradient-32);}.cls-33{fill:url(#linear-gradient-33);}.cls-34{fill:url(#linear-gradient-34);}.cls-35{fill:url(#linear-gradient-35);}.cls-36{fill:url(#linear-gradient-36);}.cls-37{fill:url(#linear-gradient-37);}.cls-38{fill:url(#linear-gradient-38);}.cls-39{fill:url(#linear-gradient-39);}.cls-40{fill:url(#linear-gradient-40);}.cls-41{fill:url(#linear-gradient-41);}.cls-42{fill:url(#linear-gradient-42);}.cls-43{fill:url(#linear-gradient-43);}.cls-44{fill:url(#linear-gradient-44);}.cls-45{fill:url(#linear-gradient-45);}.cls-46{fill:url(#linear-gradient-46);}.cls-47{fill:url(#linear-gradient-47);}.cls-48{fill:url(#linear-gradient-48);}.cls-49{fill:url(#linear-gradient-49);}.cls-50{fill:url(#linear-gradient-50);}.cls-51{fill:url(#linear-gradient-51);}.cls-52{fill:url(#linear-gradient-52);}.cls-53{fill:url(#linear-gradient-53);}.cls-54{fill:url(#linear-gradient-54);}.cls-55{fill:url(#linear-gradient-55);}.cls-56{fill:url(#linear-gradient-56);}.cls-57{fill:url(#linear-gradient-57);}.cls-58,.cls-59,.cls-60,.cls-61{fill:aqua;}.cls-62{fill:#51eaee;}</style><linearGradient id="linear-gradient" x1="-6975.44" y1="2473.55" x2="-6974.44" y2="2473.55" gradientTransform="matrix(6.32, 0, 0, -6.32, 44280.67, 16025.24)" gradientUnits="userSpaceOnUse"><stop offset="0" stop-color="#4be8f7"/><stop offset="1" stop-color="#84fca2"/></linearGradient><linearGradient id="linear-gradient-2" x1="-6975.44" y1="2473.55" x2="-6974.44" y2="2473.55" gradientTransform="matrix(6.32, 0, 0, -6.32, 44297.33, 16025.24)" xlink:href="#linear-gradient"/><linearGradient id="linear-gradient-3" x1="-6975.44" y1="2473.55" x2="-6974.44" y2="2473.55" gradientTransform="matrix(6.32, 0, 0, -6.32, 44305.67, 16025.24)" xlink:href="#linear-gradient"/><linearGradient id="linear-gradient-4" x1="-6975.44" y1="2473.55" x2="-6974.44" y2="2473.55" gradientTransform="matrix(6.32, 0, 0, -6.32, 44314, 16025.24)" xlink:href="#linear-gradient"/><linearGradient id="linear-gradient-5" x1="-6975.44" y1="2473.55" x2="-6974.44" y2="2473.55" gradientTransform="matrix(6.32, 0, 0, -6.32, 44280.67, 16017.24)" xlink:href="#linear-gradient"/><linearGradient id="linear-gradient-6" x1="-6975.44" y1="2473.55" x2="-6974.44" y2="2473.55" gradientTransform="matrix(6.32, 0, 0, -6.32, 44289, 16017.24)" xlink:href="#linear-gradient"/><linearGradient id="linear-gradient-7" x1="-6975.44" y1="2473.55" x2="-6974.44" y2="2473.55" gradientTransform="matrix(6.32, 0, 0, -6.32, 44297.33, 16017.24)" xlink:href="#linear-gradient"/><linearGradient id="linear-gradient-8" x1="-6975.44" y1="2473.55" x2="-6974.44" y2="2473.55" gradientTransform="matrix(6.32, 0, 0, -6.32, 44305.67, 16017.24)" xlink:href="#linear-gradient"/><linearGradient id="linear-gradient-9" x1="-6975.44" y1="2473.55" x2="-6974.44" y2="2473.55" gradientTransform="matrix(6.32, 0, 0, -6.32, 44280.67, 16009.25)" xlink:href="#linear-gradient"/><linearGradient id="linear-gradient-10" x1="-6975.44" y1="2473.55" x2="-6974.44" y2="2473.55" gradientTransform="matrix(6.32, 0, 0, -6.32, 44297.33, 16009.25)" xlink:href="#linear-gradient"/><linearGradient id="linear-gradient-11" x1="-6975.44" y1="2473.55" x2="-6974.44" y2="2473.55" gradientTransform="matrix(6.32, 0, 0, -6.32, 44305.67, 16009.25)" xlink:href="#linear-gradient"/><linearGradient id="linear-gradient-12" x1="-6975.44" y1="2473.55" x2="-6974.44" y2="2473.55" gradientTransform="matrix(6.32, 0, 0, -6.32, 44314, 16009.25)" xlink:href="#linear-gradient"/><linearGradient id="linear-gradient-13" x1="-6975.44" y1="2473.55" x2="-6974.44" y2="2473.55" gradientTransform="matrix(6.32, 0, 0, -6.32, 44280.67, 16001.25)" xlink:href="#linear-gradient"/><linearGradient id="linear-gradient-14" x1="-6975.44" y1="2473.55" x2="-6974.44" y2="2473.55" gradientTransform="matrix(6.32, 0, 0, -6.32, 44289, 16001.25)" xlink:href="#linear-gradient"/><linearGradient id="linear-gradient-15" x1="-6975.44" y1="2473.55" x2="-6974.44" y2="2473.55" gradientTransform="matrix(6.32, 0, 0, -6.32, 44297.33, 16001.25)" xlink:href="#linear-gradient"/><linearGradient id="linear-gradient-16" x1="-6975.44" y1="2473.55" x2="-6974.44" y2="2473.55" gradientTransform="matrix(6.32, 0, 0, -6.32, 44305.67, 16001.25)" xlink:href="#linear-gradient"/><linearGradient id="linear-gradient-17" x1="-6975.44" y1="2473.55" x2="-6974.44" y2="2473.55" gradientTransform="matrix(6.32, 0, 0, -6.32, 44314, 16001.25)" xlink:href="#linear-gradient"/><linearGradient id="linear-gradient-18" x1="-6975.44" y1="2473.55" x2="-6974.44" y2="2473.55" gradientTransform="matrix(6.32, 0, 0, -6.32, 44280.67, 15993.26)" xlink:href="#linear-gradient"/><linearGradient id="linear-gradient-19" x1="-6975.44" y1="2473.55" x2="-6974.44" y2="2473.55" gradientTransform="matrix(6.32, 0, 0, -6.32, 44289, 15993.26)" xlink:href="#linear-gradient"/><linearGradient id="linear-gradient-20" x1="-6975.44" y1="2473.55" x2="-6974.44" y2="2473.55" gradientTransform="matrix(6.32, 0, 0, -6.32, 44297.33, 15993.26)" xlink:href="#linear-gradient"/><linearGradient id="linear-gradient-21" x1="-6975.44" y1="2473.55" x2="-6974.44" y2="2473.55" gradientTransform="matrix(6.32, 0, 0, -6.32, 44305.67, 15993.26)" xlink:href="#linear-gradient"/><linearGradient id="linear-gradient-22" x1="-6975.44" y1="2473.55" x2="-6974.44" y2="2473.55" gradientTransform="matrix(6.32, 0, 0, -6.32, 44314, 15993.26)" xlink:href="#linear-gradient"/><linearGradient id="linear-gradient-23" x1="-6975.44" y1="2473.55" x2="-6974.44" y2="2473.55" gradientTransform="matrix(6.32, 0, 0, -6.32, 44280.67, 15985.26)" xlink:href="#linear-gradient"/><linearGradient id="linear-gradient-24" x1="-6975.44" y1="2473.55" x2="-6974.44" y2="2473.55" gradientTransform="matrix(6.32, 0, 0, -6.32, 44297.33, 15985.26)" xlink:href="#linear-gradient"/><linearGradient id="linear-gradient-25" x1="-6975.44" y1="2473.55" x2="-6974.44" y2="2473.55" gradientTransform="matrix(6.32, 0, 0, -6.32, 44305.67, 15985.26)" xlink:href="#linear-gradient"/><linearGradient id="linear-gradient-26" x1="-6975.44" y1="2473.55" x2="-6974.44" y2="2473.55" gradientTransform="matrix(6.32, 0, 0, -6.32, 44280.67, 15977.27)" xlink:href="#linear-gradient"/><linearGradient id="linear-gradient-27" x1="-6975.44" y1="2473.55" x2="-6974.44" y2="2473.55" gradientTransform="matrix(6.32, 0, 0, -6.32, 44289, 15977.27)" xlink:href="#linear-gradient"/><linearGradient id="linear-gradient-28" x1="-6975.44" y1="2473.55" x2="-6974.44" y2="2473.55" gradientTransform="matrix(6.32, 0, 0, -6.32, 44297.33, 15977.27)" xlink:href="#linear-gradient"/><linearGradient id="linear-gradient-29" x1="-6975.44" y1="2473.55" x2="-6974.44" y2="2473.55" gradientTransform="matrix(6.32, 0, 0, -6.32, 44305.67, 15977.27)" xlink:href="#linear-gradient"/><linearGradient id="linear-gradient-30" x1="-6975.44" y1="2473.55" x2="-6974.44" y2="2473.55" gradientTransform="matrix(6.32, 0, 0, -6.32, 44314, 15977.27)" xlink:href="#linear-gradient"/><linearGradient id="linear-gradient-31" x1="-6975.44" y1="2473.55" x2="-6974.44" y2="2473.55" gradientTransform="matrix(6.32, 0, 0, -6.32, 44280.67, 15969.27)" xlink:href="#linear-gradient"/><linearGradient id="linear-gradient-32" x1="-6975.44" y1="2473.55" x2="-6974.44" y2="2473.55" gradientTransform="matrix(6.32, 0, 0, -6.32, 44289, 15969.27)" xlink:href="#linear-gradient"/><linearGradient id="linear-gradient-33" x1="-6975.44" y1="2473.55" x2="-6974.44" y2="2473.55" gradientTransform="matrix(6.32, 0, 0, -6.32, 44297.33, 15969.27)" xlink:href="#linear-gradient"/><linearGradient id="linear-gradient-34" x1="-6975.44" y1="2473.55" x2="-6974.44" y2="2473.55" gradientTransform="matrix(6.32, 0, 0, -6.32, 44305.67, 15969.27)" xlink:href="#linear-gradient"/><linearGradient id="linear-gradient-35" x1="-6975.44" y1="2473.55" x2="-6974.44" y2="2473.55" gradientTransform="matrix(6.32, 0, 0, -6.32, 44314, 15969.27)" xlink:href="#linear-gradient"/><linearGradient id="linear-gradient-36" x1="-6975.44" y1="2473.55" x2="-6974.44" y2="2473.55" gradientTransform="matrix(6.32, 0, 0, -6.32, 44280.67, 15961.28)" xlink:href="#linear-gradient"/><linearGradient id="linear-gradient-37" x1="-6975.44" y1="2473.55" x2="-6974.44" y2="2473.55" gradientTransform="matrix(6.32, 0, 0, -6.32, 44289, 15961.28)" xlink:href="#linear-gradient"/><linearGradient id="linear-gradient-38" x1="-6975.44" y1="2473.55" x2="-6974.44" y2="2473.55" gradientTransform="matrix(6.32, 0, 0, -6.32, 44305.67, 15961.28)" xlink:href="#linear-gradient"/><linearGradient id="linear-gradient-39" x1="-6975.44" y1="2473.55" x2="-6974.44" y2="2473.55" gradientTransform="matrix(6.32, 0, 0, -6.32, 44314, 15961.28)" xlink:href="#linear-gradient"/><linearGradient id="linear-gradient-40" x1="-6975.44" y1="2473.55" x2="-6974.44" y2="2473.55" gradientTransform="matrix(6.32, 0, 0, -6.32, 44280.67, 15953.28)" xlink:href="#linear-gradient"/><linearGradient id="linear-gradient-41" x1="-6975.44" y1="2473.55" x2="-6974.44" y2="2473.55" gradientTransform="matrix(6.32, 0, 0, -6.32, 44289, 15953.28)" xlink:href="#linear-gradient"/><linearGradient id="linear-gradient-42" x1="-6975.44" y1="2473.55" x2="-6974.44" y2="2473.55" gradientTransform="matrix(6.32, 0, 0, -6.32, 44297.33, 15953.28)" xlink:href="#linear-gradient"/><linearGradient id="linear-gradient-43" x1="-6975.44" y1="2473.55" x2="-6974.44" y2="2473.55" gradientTransform="matrix(6.32, 0, 0, -6.32, 44305.67, 15953.28)" xlink:href="#linear-gradient"/><linearGradient id="linear-gradient-44" x1="-6975.44" y1="2473.55" x2="-6974.44" y2="2473.55" gradientTransform="matrix(6.32, 0, 0, -6.32, 44314, 15953.28)" xlink:href="#linear-gradient"/><linearGradient id="linear-gradient-45" x1="-6975.44" y1="2473.55" x2="-6974.44" y2="2473.55" gradientTransform="matrix(6.32, 0, 0, -6.32, 44280.67, 15945.29)" xlink:href="#linear-gradient"/><linearGradient id="linear-gradient-46" x1="-6975.44" y1="2473.55" x2="-6974.44" y2="2473.55" gradientTransform="matrix(6.32, 0, 0, -6.32, 44289, 15945.29)" xlink:href="#linear-gradient"/><linearGradient id="linear-gradient-47" x1="-6975.44" y1="2473.55" x2="-6974.44" y2="2473.55" gradientTransform="matrix(6.32, 0, 0, -6.32, 44297.33, 15945.29)" xlink:href="#linear-gradient"/><linearGradient id="linear-gradient-48" x1="-6975.44" y1="2473.55" x2="-6974.44" y2="2473.55" gradientTransform="matrix(6.32, 0, 0, -6.32, 44314, 15945.29)" xlink:href="#linear-gradient"/><linearGradient id="linear-gradient-49" x1="-6975.44" y1="2473.55" x2="-6974.44" y2="2473.55" gradientTransform="matrix(6.32, 0, 0, -6.32, 44289, 16025.24)" xlink:href="#linear-gradient"/><linearGradient id="linear-gradient-50" x1="-6975.44" y1="2473.55" x2="-6974.44" y2="2473.55" gradientTransform="matrix(6.32, 0, 0, -6.32, 44314, 16017.24)" xlink:href="#linear-gradient"/><linearGradient id="linear-gradient-51" x1="-6975.44" y1="2473.55" x2="-6974.44" y2="2473.55" gradientTransform="matrix(6.32, 0, 0, -6.32, 44289, 16009.25)" xlink:href="#linear-gradient"/><linearGradient id="linear-gradient-52" x1="-6975.44" y1="2473.55" x2="-6974.44" y2="2473.55" gradientTransform="matrix(6.32, 0, 0, -6.32, 44289, 15985.26)" xlink:href="#linear-gradient"/><linearGradient id="linear-gradient-53" x1="-6975.44" y1="2473.55" x2="-6974.44" y2="2473.55" gradientTransform="matrix(6.32, 0, 0, -6.32, 44314, 15985.26)" xlink:href="#linear-gradient"/><linearGradient id="linear-gradient-54" x1="-6975.44" y1="2473.55" x2="-6974.44" y2="2473.55" gradientTransform="matrix(6.32, 0, 0, -6.32, 44297.33, 15961.28)" xlink:href="#linear-gradient"/><linearGradient id="linear-gradient-55" x1="-6975.44" y1="2473.55" x2="-6974.44" y2="2473.55" gradientTransform="matrix(6.32, 0, 0, -6.32, 44305.67, 15945.29)" xlink:href="#linear-gradient"/><linearGradient id="linear-gradient-56" x1="-7798.01" y1="2282.39" x2="-7797.01" y2="2282.39" gradientTransform="matrix(22.89, 0, 0, -25.73, 178583.79, 59209.99)" xlink:href="#linear-gradient"/><linearGradient id="linear-gradient-57" x1="-8080.49" y1="2224.29" x2="-8079.49" y2="2224.29" gradientTransform="matrix(227.65, 0, 0, -380.2, 1839557.59, 846072.82)" xlink:href="#linear-gradient"/></defs><title>SecretCodeLogo</title><g id="Group_3475" data-name="Group 3475"><g id="Group_3472" data-name="Group 3472"><rect id="Rectangle_17385" data-name="Rectangle 17385" class="cls-1" x="168" y="379.36" width="6.32" height="6.32"/><rect id="Rectangle_17386" data-name="Rectangle 17386" class="cls-2" x="184.67" y="379.36" width="6.32" height="6.32"/><rect id="Rectangle_17387" data-name="Rectangle 17387" class="cls-3" x="193" y="379.36" width="6.32" height="6.32"/><rect id="Rectangle_17388" data-name="Rectangle 17388" class="cls-4" x="201.33" y="379.36" width="6.32" height="6.32"/><rect id="Rectangle_17389" data-name="Rectangle 17389" class="cls-5" x="168" y="371.36" width="6.32" height="6.32"/><rect id="Rectangle_17390" data-name="Rectangle 17390" class="cls-6" x="176.33" y="371.36" width="6.32" height="6.32"/><rect id="Rectangle_17391" data-name="Rectangle 17391" class="cls-7" x="184.67" y="371.36" width="6.32" height="6.32"/><rect id="Rectangle_17392" data-name="Rectangle 17392" class="cls-8" x="193" y="371.36" width="6.32" height="6.32"/><rect id="Rectangle_17393" data-name="Rectangle 17393" class="cls-9" x="168" y="363.37" width="6.32" height="6.32"/><rect id="Rectangle_17394" data-name="Rectangle 17394" class="cls-10" x="184.67" y="363.37" width="6.32" height="6.32"/><rect id="Rectangle_17395" data-name="Rectangle 17395" class="cls-11" x="193" y="363.37" width="6.32" height="6.32"/><rect id="Rectangle_17396" data-name="Rectangle 17396" class="cls-12" x="201.33" y="363.37" width="6.32" height="6.32"/><rect id="Rectangle_17397" data-name="Rectangle 17397" class="cls-13" x="168" y="355.37" width="6.32" height="6.32"/><rect id="Rectangle_17398" data-name="Rectangle 17398" class="cls-14" x="176.33" y="355.37" width="6.32" height="6.32"/><rect id="Rectangle_17399" data-name="Rectangle 17399" class="cls-15" x="184.67" y="355.37" width="6.32" height="6.32"/><rect id="Rectangle_17400" data-name="Rectangle 17400" class="cls-16" x="193" y="355.37" width="6.32" height="6.32"/><rect id="Rectangle_17401" data-name="Rectangle 17401" class="cls-17" x="201.33" y="355.37" width="6.32" height="6.32"/><rect id="Rectangle_17402" data-name="Rectangle 17402" class="cls-18" x="168" y="347.38" width="6.32" height="6.32"/><rect id="Rectangle_17403" data-name="Rectangle 17403" class="cls-19" x="176.33" y="347.38" width="6.32" height="6.32"/><rect id="Rectangle_17404" data-name="Rectangle 17404" class="cls-20" x="184.67" y="347.38" width="6.32" height="6.32"/><rect id="Rectangle_17405" data-name="Rectangle 17405" class="cls-21" x="193" y="347.38" width="6.32" height="6.32"/><rect id="Rectangle_17406" data-name="Rectangle 17406" class="cls-22" x="201.33" y="347.38" width="6.32" height="6.32"/><rect id="Rectangle_17407" data-name="Rectangle 17407" class="cls-23" x="168" y="339.38" width="6.32" height="6.32"/><rect id="Rectangle_17408" data-name="Rectangle 17408" class="cls-24" x="184.67" y="339.38" width="6.32" height="6.32"/><rect id="Rectangle_17409" data-name="Rectangle 17409" class="cls-25" x="193" y="339.38" width="6.32" height="6.32"/><rect id="Rectangle_17410" data-name="Rectangle 17410" class="cls-26" x="168" y="331.39" width="6.32" height="6.32"/><rect id="Rectangle_17411" data-name="Rectangle 17411" class="cls-27" x="176.33" y="331.39" width="6.32" height="6.32"/><rect id="Rectangle_17412" data-name="Rectangle 17412" class="cls-28" x="184.67" y="331.39" width="6.32" height="6.32"/><rect id="Rectangle_17413" data-name="Rectangle 17413" class="cls-29" x="193" y="331.39" width="6.32" height="6.32"/><rect id="Rectangle_17414" data-name="Rectangle 17414" class="cls-30" x="201.33" y="331.39" width="6.32" height="6.32"/><rect id="Rectangle_17415" data-name="Rectangle 17415" class="cls-31" x="168" y="323.39" width="6.32" height="6.32"/><rect id="Rectangle_17416" data-name="Rectangle 17416" class="cls-32" x="176.33" y="323.39" width="6.32" height="6.32"/><rect id="Rectangle_17417" data-name="Rectangle 17417" class="cls-33" x="184.67" y="323.39" width="6.32" height="6.32"/><rect id="Rectangle_17418" data-name="Rectangle 17418" class="cls-34" x="193" y="323.39" width="6.32" height="6.32"/><rect id="Rectangle_17419" data-name="Rectangle 17419" class="cls-35" x="201.33" y="323.39" width="6.32" height="6.32"/><rect id="Rectangle_17420" data-name="Rectangle 17420" class="cls-36" x="168" y="315.4" width="6.32" height="6.32"/><rect id="Rectangle_17421" data-name="Rectangle 17421" class="cls-37" x="176.33" y="315.4" width="6.32" height="6.32"/><rect id="Rectangle_17422" data-name="Rectangle 17422" class="cls-38" x="193" y="315.4" width="6.32" height="6.32"/><rect id="Rectangle_17423" data-name="Rectangle 17423" class="cls-39" x="201.33" y="315.4" width="6.32" height="6.32"/><rect id="Rectangle_17424" data-name="Rectangle 17424" class="cls-40" x="168" y="307.4" width="6.32" height="6.32"/><rect id="Rectangle_17425" data-name="Rectangle 17425" class="cls-41" x="176.33" y="307.4" width="6.32" height="6.32"/><rect id="Rectangle_17426" data-name="Rectangle 17426" class="cls-42" x="184.67" y="307.4" width="6.32" height="6.32"/><rect id="Rectangle_17427" data-name="Rectangle 17427" class="cls-43" x="193" y="307.4" width="6.32" height="6.32"/><rect id="Rectangle_17428" data-name="Rectangle 17428" class="cls-44" x="201.33" y="307.4" width="6.32" height="6.32"/><rect id="Rectangle_17429" data-name="Rectangle 17429" class="cls-45" x="168" y="299.41" width="6.32" height="6.32"/><rect id="Rectangle_17430" data-name="Rectangle 17430" class="cls-46" x="176.33" y="299.41" width="6.32" height="6.32"/><rect id="Rectangle_17431" data-name="Rectangle 17431" class="cls-47" x="184.67" y="299.41" width="6.32" height="6.32"/><rect id="Rectangle_17432" data-name="Rectangle 17432" class="cls-48" x="201.33" y="299.41" width="6.32" height="6.32"/><rect id="Rectangle_17433" data-name="Rectangle 17433" class="cls-49" x="176.33" y="379.36" width="6.32" height="6.32"/><rect id="Rectangle_17434" data-name="Rectangle 17434" class="cls-50" x="201.33" y="371.36" width="6.32" height="6.32"/><rect id="Rectangle_17435" data-name="Rectangle 17435" class="cls-51" x="176.33" y="363.37" width="6.32" height="6.32"/><rect id="Rectangle_17436" data-name="Rectangle 17436" class="cls-52" x="176.33" y="339.38" width="6.32" height="6.32"/><rect id="Rectangle_17437" data-name="Rectangle 17437" class="cls-53" x="201.33" y="339.38" width="6.32" height="6.32"/><rect id="Rectangle_17438" data-name="Rectangle 17438" class="cls-54" x="184.67" y="315.4" width="6.32" height="6.32"/><rect id="Rectangle_17439" data-name="Rectangle 17439" class="cls-55" x="193" y="299.41" width="6.32" height="6.32"/></g><g id="Group_3473" data-name="Group 3473"><path id="Path_8445" data-name="Path 8445" class="cls-56" d="M125.24,486.46c-5.81,0-10.48-5-11.41-6-.93,1.05-5.6,6-11.42,6,0,0-1.13,16.13,11.19,19.64l.23.06C126.39,502.79,125.24,486.46,125.24,486.46Z"/><path id="Path_8446" data-name="Path 8446" class="cls-57" d="M227.39,388.22c-57.87,0-104.32-49.34-113.56-59.86-5.65,6.43-25.21,27.37-52.78,42.67V297.21c0-27.88,25.66-50.7,53.54-50.7h0c27.89,0,53.54,22.82,53.54,50.7V330L208,305.89v-8.56c0-51.31-42-93.3-93.3-93.3s-93.3,42-93.3,93.3v88.74A106.49,106.49,0,0,1,.27,388.22s-.54,7.71-.09,20.13c4.84.18,10.64.35,14.66.35,6.76,0,13.34-.3,18.36-.61,0-.07,7.53-.54,8.43-.62,37.1-4.24,66.09-35.05,72.2-42,6.56,7.47,39.53,42.5,80.61,42.5,0,0,8.07,115.35-80.61,139.15-.55-.14-1.09-.3-1.63-.45C60.12,531.84,42.09,485,36,449.85H4.68c9,49.21,34.8,113.22,106.86,133.75.76.21,1.52.43,2.29.63C238.74,550.7,227.39,388.22,227.39,388.22Z"/></g><g id="Group_3474" data-name="Group 3474"><rect id="Rectangle_17440" data-name="Rectangle 17440" class="cls-58" x="15.16" y="414.71" width="5.76" height="5.76"/><rect id="Rectangle_17441" data-name="Rectangle 17441" class="cls-59" x="7.58" y="443.81" width="5.76" height="5.76"/><rect id="Rectangle_17442" data-name="Rectangle 17442" class="cls-59" x="7.58" y="429.26" width="5.76" height="5.76"/><rect id="Rectangle_17443" data-name="Rectangle 17443" class="cls-59" x="15.16" y="407.43" width="5.76" height="5.76"/><rect id="Rectangle_17444" data-name="Rectangle 17444" class="cls-60" x="7.58" y="436.54" width="5.76" height="5.76"/><rect id="Rectangle_17445" data-name="Rectangle 17445" class="cls-58" x="15.16" y="436.54" width="5.76" height="5.76"/><rect id="Rectangle_17446" data-name="Rectangle 17446" class="cls-59" x="22.74" y="414.71" width="5.76" height="5.76"/><rect id="Rectangle_17447" data-name="Rectangle 17447" class="cls-58" x="22.74" y="421.98" width="5.76" height="5.76"/><rect id="Rectangle_17448" data-name="Rectangle 17448" class="cls-59" x="22.74" y="429.26" width="5.76" height="5.76"/><rect id="Rectangle_17449" data-name="Rectangle 17449" class="cls-61" x="22.74" y="436.54" width="5.76" height="5.76"/><rect id="Rectangle_17450" data-name="Rectangle 17450" class="cls-59" x="22.74" y="443.81" width="5.76" height="5.76"/><rect id="Rectangle_17451" data-name="Rectangle 17451" class="cls-61" x="15.16" y="421.98" width="5.76" height="5.76"/><rect id="Rectangle_17452" data-name="Rectangle 17452" class="cls-60" x="15.16" y="429.26" width="5.76" height="5.76"/><rect id="Rectangle_17453" data-name="Rectangle 17453" class="cls-60" x="7.58" y="421.98" width="5.76" height="5.76"/><rect id="Rectangle_17454" data-name="Rectangle 17454" class="cls-60" x="15.16" y="443.81" width="5.76" height="5.76"/><path id="Path_8447" data-name="Path 8447" class="cls-58" d="M.85,420.46H5.76v-5.75H.47C.58,416.62.7,418.54.85,420.46Z"/><path id="Path_8448" data-name="Path 8448" class="cls-59" d="M.39,413.19H5.76v-5.76H.17c0,1.9.13,3.82.22,5.75Z"/><path id="Path_8449" data-name="Path 8449" class="cls-59" d="M1.5,427.74H5.76V422H1C1.13,423.9,1.3,425.82,1.5,427.74Z"/><path id="Path_8450" data-name="Path 8450" class="cls-59" d="M5.75,449.57v-5.76H3.65q.48,2.9,1,5.76Z"/><rect id="Rectangle_17455" data-name="Rectangle 17455" class="cls-60" x="7.58" y="407.43" width="5.76" height="5.76"/><path id="Path_8451" data-name="Path 8451" class="cls-61" d="M5.76,435v-5.76H1.67q.3,2.88.68,5.76Z"/><rect id="Rectangle_17456" data-name="Rectangle 17456" class="cls-60" x="7.58" y="414.71" width="5.76" height="5.76"/><path id="Path_8452" data-name="Path 8452" class="cls-59" d="M3.41,442.29H5.76v-5.75H2.56q.39,2.88.84,5.75Z"/><path id="Path_8454" data-name="Path 8454" class="cls-60" d="M33.18,414.71H30.33v5.75h2.93C33.21,418.52,33.19,416.61,33.18,414.71Z"/><path id="Path_8456" data-name="Path 8456" class="cls-60" d="M33.64,429.26H30.33V435h3.75Q33.82,432.11,33.64,429.26Z"/><path id="Path_8458" data-name="Path 8458" class="cls-59" d="M34.22,436.54H30.33v5.75h4.53C34.62,440.36,34.4,438.44,34.22,436.54Z"/><path id="Path_8459" data-name="Path 8459" class="cls-59" d="M33.3,422h-3v5.75h3.22C33.44,425.8,33.36,423.88,33.3,422Z"/><path id="Path_8461" data-name="Path 8461" class="cls-58" d="M35.06,443.81H30.33v5.76h5.58c-.16-1-.31-2-.45-2.93S35.19,444.75,35.06,443.81Z"/><rect id="Rectangle_17457" data-name="Rectangle 17457" class="cls-61" x="22.74" y="407.43" width="5.76" height="5.76"/><path id="Path_8462" data-name="Path 8462" class="cls-59" d="M33.19,413.19v0Z"/><path id="Path_8464" data-name="Path 8464" class="cls-59" d="M33.27,407.44H30.33v5.75h2.86C33.19,411.25,33.22,409.33,33.27,407.44Z"/></g></g><g id="Group_3476" data-name="Group 3476"><path id="Path_8470" data-name="Path 8470" class="cls-62" d="M13.43,59.47Q0,59.47,0,46V41.82l7.29-3.46h.39V46q0,6.52,5.75,6.52H25.32q5.76,0,5.76-6.52V38q0-6.52-5.76-6.52H15Q3.46,31.46,3.46,20v-6.9Q3.46,1.53,15,1.53h8.83q11.51,0,11.51,11.52v2L28,18.53h-.38V13.05q0-4.62-3.84-4.6H15q-3.83,0-3.83,4.6V20q0,4.61,3.83,4.6H25.32q13.44,0,13.43,13.43V46q0,13.44-13.43,13.43Z"/><path id="Path_8471" data-name="Path 8471" class="cls-62" d="M67.11,59.47Q55.61,59.47,55.6,48V28.78q0-11.52,11.51-11.51h8.82q11.52,0,11.51,11.51v2l-24,18.6A3.4,3.4,0,0,0,67,52.57h8.92q3.84,0,3.84-4.6v-2l7.29-3.45h.38V48q0,11.51-11.51,11.51ZM63.27,41.4,79.73,28.68q-.23-4.5-3.8-4.5H67.11q-3.84,0-3.84,4.6Z"/><path id="Path_8472" data-name="Path 8472" class="cls-62" d="M108.87,59.47q-11.5,0-11.5-11.51V28.78q0-11.52,11.5-11.51h8.83q11.51,0,11.51,11.51v2l-7.29,3.45h-.39V28.78q0-4.61-3.83-4.6h-8.83q-3.83,0-3.83,4.6V48q0,4.6,3.83,4.6h8.83c2.56,0,3.83-1.53,3.83-4.6v-2l7.29-3.46h.39V48q0,11.51-11.51,11.51Z"/><path id="Path_8473" data-name="Path 8473" class="cls-62" d="M139.13,61V28.78q0-11.52,11.51-11.51h9.59v.38l-3.07,6.52h-6.52c-2.56,0-3.84,1.54-3.84,4.6V57.55L139.51,61Z"/><path id="Path_8474" data-name="Path 8474" class="cls-62" d="M178.54,59.47Q167,59.47,167,48V28.78q0-11.52,11.51-11.51h8.83q11.5,0,11.51,11.51v2l-24.06,18.6a3.4,3.4,0,0,0,3.62,3.16h8.93q3.82,0,3.83-4.6v-2l7.29-3.45h.38V48q0,11.51-11.5,11.51ZM174.71,41.4l16.46-12.72c-.16-3-1.42-4.5-3.8-4.5h-8.83q-3.82,0-3.83,4.6Z"/><path id="Path_8475" data-name="Path 8475" class="cls-62" d="M210.12,61V24.25h-9.86v-.39l3.11-6.6h6.75V3.45L217.41,0h.38V17.26h9.86v.39l-3.1,6.6h-6.76v33.3L210.5,61Z"/><path id="Path_8476" data-name="Path 8476" class="cls-62" d="M18.09,155.5Q0,155.5,0,137.41V95.54Q0,77.45,18.09,77.45h16q18.09,0,18.09,18.09v5.69l-9.82,4.65h-.52V95.54q0-8.78-7.75-8.78h-16q-7.75,0-7.75,8.78v41.87q0,8.79,7.75,8.79h16q7.74,0,7.75-8.79v-5.69l9.82-4.65h.52v10.34q0,18.09-18.09,18.09Z"/><path id="Path_8477" data-name="Path 8477" class="cls-62" d="M84.56,155.5q-15.51,0-15.51-15.51V114.15q0-15.51,15.51-15.5H96.44q15.51,0,15.51,15.5V140q0,15.51-15.51,15.51Zm0-9.3H96.44q5.18,0,5.17-6.2V114.15q0-6.2-5.17-6.2H84.56q-5.18,0-5.17,6.2V140q0,6.21,5.17,6.21Z"/><path id="Path_8478" data-name="Path 8478" class="cls-62" d="M139.6,155.5q-15.49,0-15.5-15.5V114.15q0-15.51,15.5-15.5h11.89q3.52,0,5.17,1.6V80l9.82-4.66H167V140q0,15.51-15.51,15.51Zm0-9.3h11.89c3.45,0,5.17-2.06,5.17-6.2V114.15q0-6.2-5.17-6.2H139.6c-3.44,0-5.17,2.07-5.17,6.2V140c0,4.14,1.73,6.21,5.17,6.21Z"/><path id="Path_8479" data-name="Path 8479" class="cls-62" d="M194.65,155.5q-15.51,0-15.51-15.51V114.15q0-15.51,15.51-15.5h11.89q15.51,0,15.5,15.5v2.74L189.64,142q.72,4.25,5,4.25h11.89q5.16,0,5.17-6.2v-2.74l9.82-4.66H222V140q0,15.5-15.5,15.5Zm-5.17-24.34L211.66,114q-.32-6.08-5.12-6.07H194.65q-5.18,0-5.17,6.2Z"/></g></svg>